<?xml version="1.0" standalone="no"?>
<!DOCTYPE svg PUBLIC "-//W3C//DTD SVG 20010904//EN"
 "http://www.w3.org/TR/2001/REC-SVG-20010904/DTD/svg10.dtd">
<svg version="1.0" xmlns="http://www.w3.org/2000/svg"
 width="260.000000pt" height="260.000000pt" viewBox="0 0 260.000000 260.000000"
 preserveAspectRatio="xMidYMid meet">
<metadata>
Created by potrace 1.11, written by Peter Selinger 2001-2013
</metadata>
<g transform="translate(0.000000,260.000000) scale(0.100000,-0.100000)"
fill="#000000" stroke="none">
<path d="M167 1665 c-100 -33 -161 -135 -136 -228 20 -76 63 -113 191 -166 98
-41 138 -83 138 -145 0 -120 -143 -162 -311 -92 -12 5 -19 -1 -28 -25 -16 -46
-16 -46 41 -66 64 -21 195 -24 251 -4 104 36 160 135 136 239 -17 77 -47 106
-173 166 -66 32 -122 65 -134 81 -26 33 -29 91 -6 124 35 49 146 67 221 36 40
-17 45 -14 61 32 10 30 9 32 -21 43 -55 19 -177 22 -230 5z"/>
<path d="M2273 1670 c-123 -26 -207 -90 -260 -197 -37 -74 -38 -81 -37 -177 1
-121 23 -190 86 -260 80 -92 215 -131 373 -108 45 7 97 17 114 23 l31 11 0
179 0 179 -120 0 -120 0 0 -40 0 -40 75 0 75 0 0 -110 c0 -96 -2 -112 -17
-118 -10 -4 -61 -7 -113 -7 -87 0 -100 3 -149 30 -30 17 -67 48 -83 69 -56 78
-73 201 -42 307 22 73 100 151 175 173 66 20 161 20 224 1 27 -8 50 -13 50
-12 1 1 6 19 12 39 l11 38 -36 10 c-52 15 -199 21 -249 10z"/>
<path d="M576 1658 c-2 -7 -14 -164 -25 -348 -12 -184 -23 -345 -25 -357 -3
-21 1 -23 39 -23 36 0 44 4 48 23 3 12 11 135 17 272 17 378 14 368 66 195 24
-80 70 -221 103 -315 l58 -170 35 -3 35 -3 80 223 c45 123 96 268 115 323 l33
100 2 -50 c16 -366 25 -526 29 -557 6 -37 6 -38 51 -38 l45 0 -6 58 c-3 31
-13 179 -21 327 -9 149 -18 289 -21 313 l-5 42 -58 0 -59 0 -62 -167 c-69
-188 -140 -399 -140 -420 0 -34 -18 -6 -34 54 -9 36 -54 171 -99 300 l-81 233
-58 0 c-38 0 -60 -4 -62 -12z"/>
<path d="M1600 1666 c0 -2 -56 -169 -124 -370 l-125 -366 49 0 50 0 37 120 37
120 132 0 132 0 39 -117 40 -118 51 -3 51 -3 -116 338 c-63 186 -120 353 -126
371 -10 31 -12 32 -69 32 -32 0 -58 -2 -58 -4z m113 -258 l55 -168 -110 0
c-88 0 -109 3 -106 14 5 23 103 324 104 323 1 -1 27 -77 57 -169z"/>
</g>
</svg>
